<mxfile host="app.diagrams.net" agent="Mozilla/5.0 (X11; Linux x86_64; rv:130.0) Gecko/20100101 Firefox/130.0" version="26.1.3">
  <diagram name="Page-1" id="1cxbnADfRglhzpuQFdE1">
    <mxGraphModel dx="3056" dy="2251" grid="1" gridSize="10" guides="1" tooltips="1" connect="1" arrows="1" fold="1" page="1" pageScale="1" pageWidth="850" pageHeight="1100" math="0" shadow="0">
      <root>
        <mxCell id="0" />
        <mxCell id="1" parent="0" />
        <mxCell id="2" value="" style="whiteSpace=wrap;strokeWidth=2;verticalAlign=top;fontSize=20;" parent="1" vertex="1">
          <mxGeometry x="-20" width="1682" height="1892" as="geometry" />
        </mxCell>
        <mxCell id="3" value="Microbes in Extreme Environments" style="whiteSpace=wrap;strokeWidth=2;fontSize=20;" parent="2" vertex="1">
          <mxGeometry x="145.98490566037736" y="927" width="355.4415094339622" height="54" as="geometry" />
        </mxCell>
        <mxCell id="4" value="Extreme Temperature" style="rounded=1;arcSize=20;strokeWidth=2;fontSize=20;" parent="2" vertex="1">
          <mxGeometry x="739.4452830188679" y="95" width="314.18490566037735" height="54" as="geometry" />
        </mxCell>
        <mxCell id="5" value="Psychrophile" style="rounded=1;arcSize=20;strokeWidth=2;fontSize=20;" parent="2" vertex="1">
          <mxGeometry x="1291.6490566037735" y="43" width="295.14339622641506" height="54" as="geometry" />
        </mxCell>
        <mxCell id="6" value="Thermophile" style="rounded=1;arcSize=20;strokeWidth=2;fontSize=20;" parent="2" vertex="1">
          <mxGeometry x="1291.6490566037735" y="147" width="295.14339622641506" height="54" as="geometry" />
        </mxCell>
        <mxCell id="7" value="Extreme pH" style="rounded=1;arcSize=20;strokeWidth=2;fontSize=20;" parent="2" vertex="1">
          <mxGeometry x="739.4452830188679" y="303" width="314.18490566037735" height="54" as="geometry" />
        </mxCell>
        <mxCell id="8" value="Hyperthermophile" style="rounded=1;arcSize=20;strokeWidth=2;fontSize=20;" parent="2" vertex="1">
          <mxGeometry x="1291.6490566037735" y="251" width="295.14339622641506" height="54" as="geometry" />
        </mxCell>
        <mxCell id="9" value="Acidophile" style="rounded=1;arcSize=20;strokeWidth=2;fontSize=20;" parent="2" vertex="1">
          <mxGeometry x="1291.6490566037735" y="355" width="295.14339622641506" height="54" as="geometry" />
        </mxCell>
        <mxCell id="10" value="Low Humidity" style="rounded=1;arcSize=20;strokeWidth=2;fontSize=20;" parent="2" vertex="1">
          <mxGeometry x="739.4452830188679" y="511" width="314.18490566037735" height="54" as="geometry" />
        </mxCell>
        <mxCell id="11" value="Alkaliphile" style="rounded=1;arcSize=20;strokeWidth=2;fontSize=20;" parent="2" vertex="1">
          <mxGeometry x="1291.6490566037735" y="459" width="295.14339622641506" height="54" as="geometry" />
        </mxCell>
        <mxCell id="12" value="Xerophile" style="rounded=1;arcSize=20;strokeWidth=2;fontSize=20;" parent="2" vertex="1">
          <mxGeometry x="1291.6490566037735" y="563" width="295.14339622641506" height="54" as="geometry" />
        </mxCell>
        <mxCell id="13" value="Extreme Salinity" style="rounded=1;arcSize=20;strokeWidth=2;fontSize=20;" parent="2" vertex="1">
          <mxGeometry x="739.4452830188679" y="719" width="314.18490566037735" height="54" as="geometry" />
        </mxCell>
        <mxCell id="14" value="Halophile" style="rounded=1;arcSize=20;strokeWidth=2;fontSize=20;" parent="2" vertex="1">
          <mxGeometry x="1294.9990566037734" y="730" width="295.14339622641506" height="54" as="geometry" />
        </mxCell>
        <mxCell id="16" value="Extreme Sugar Concentration" style="rounded=1;arcSize=20;strokeWidth=2;fontSize=20;" parent="2" vertex="1">
          <mxGeometry x="739.4452830188679" y="927" width="314.18490566037735" height="54" as="geometry" />
        </mxCell>
        <mxCell id="18" value="Osmophile" style="rounded=1;arcSize=20;strokeWidth=2;fontSize=20;" parent="2" vertex="1">
          <mxGeometry x="1291.6490566037735" y="979" width="295.14339622641506" height="54" as="geometry" />
        </mxCell>
        <mxCell id="19" value="Extreme Pressure" style="rounded=1;arcSize=20;strokeWidth=2;fontSize=20;" parent="2" vertex="1">
          <mxGeometry x="739.4452830188679" y="1135" width="314.18490566037735" height="54" as="geometry" />
        </mxCell>
        <mxCell id="20" value="Piezophile" style="rounded=1;arcSize=20;strokeWidth=2;fontSize=20;" parent="2" vertex="1">
          <mxGeometry x="1291.6490566037735" y="1083" width="295.14339622641506" height="54" as="geometry" />
        </mxCell>
        <mxCell id="21" value="Barophile" style="rounded=1;arcSize=20;strokeWidth=2;fontSize=20;" parent="2" vertex="1">
          <mxGeometry x="1291.6490566037735" y="1187" width="295.14339622641506" height="54" as="geometry" />
        </mxCell>
        <mxCell id="22" value="Heavy Metal" style="rounded=1;arcSize=20;strokeWidth=2;fontSize=20;" parent="2" vertex="1">
          <mxGeometry x="739.4452830188679" y="1343" width="314.18490566037735" height="54" as="geometry" />
        </mxCell>
        <mxCell id="23" value="Metallotolerant" style="rounded=1;arcSize=20;strokeWidth=2;fontSize=20;" parent="2" vertex="1">
          <mxGeometry x="1279.9990566037734" y="1343" width="295.14339622641506" height="54" as="geometry" />
        </mxCell>
        <mxCell id="25" value="Microbes in Rocks" style="rounded=1;arcSize=20;strokeWidth=2;fontSize=20;" parent="2" vertex="1">
          <mxGeometry x="739.4452830188679" y="1551" width="314.18490566037735" height="54" as="geometry" />
        </mxCell>
        <mxCell id="26" value="Endolith" style="rounded=1;arcSize=20;strokeWidth=2;fontSize=20;" parent="2" vertex="1">
          <mxGeometry x="1291.6490566037735" y="1499" width="295.14339622641506" height="54" as="geometry" />
        </mxCell>
        <mxCell id="27" value="Hypolith" style="rounded=1;arcSize=20;strokeWidth=2;fontSize=20;" parent="2" vertex="1">
          <mxGeometry x="1291.6490566037735" y="1603" width="295.14339622641506" height="54" as="geometry" />
        </mxCell>
        <mxCell id="28" value="Extreme Radiation " style="rounded=1;arcSize=20;strokeWidth=2;fontSize=20;" parent="2" vertex="1">
          <mxGeometry x="739.4452830188679" y="1759" width="314.18490566037735" height="54" as="geometry" />
        </mxCell>
        <mxCell id="29" value="Radiophile" style="rounded=1;arcSize=20;strokeWidth=2;fontSize=20;" parent="2" vertex="1">
          <mxGeometry x="1295" y="1750" width="295.14" height="63" as="geometry" />
        </mxCell>
        <mxCell id="31" value="" style="curved=1;startArrow=none;endArrow=block;exitX=0.52;exitY=0;entryX=0;entryY=0.5;" parent="2" source="3" target="4" edge="1">
          <mxGeometry relative="1" as="geometry">
            <Array as="points">
              <mxPoint x="618.8490566037736" y="122" />
            </Array>
          </mxGeometry>
        </mxCell>
        <mxCell id="32" value="" style="curved=1;startArrow=none;endArrow=block;exitX=0.96;exitY=0;entryX=0;entryY=0.5;" parent="2" source="4" target="5" edge="1">
          <mxGeometry relative="1" as="geometry">
            <Array as="points">
              <mxPoint x="1174.2264150943395" y="70" />
            </Array>
          </mxGeometry>
        </mxCell>
        <mxCell id="33" value="" style="curved=1;startArrow=none;endArrow=block;exitX=1;exitY=0.25;entryX=0;entryY=0.5;exitDx=0;exitDy=0;" parent="2" source="4" target="6" edge="1">
          <mxGeometry relative="1" as="geometry">
            <Array as="points">
              <mxPoint x="1174.2264150943395" y="174" />
            </Array>
          </mxGeometry>
        </mxCell>
        <mxCell id="34" value="" style="curved=1;startArrow=none;endArrow=block;exitX=0.53;exitY=0;entryX=0;entryY=0.5;" parent="2" source="3" target="7" edge="1">
          <mxGeometry relative="1" as="geometry">
            <Array as="points">
              <mxPoint x="618.8490566037736" y="330" />
            </Array>
          </mxGeometry>
        </mxCell>
        <mxCell id="35" value="" style="curved=1;startArrow=none;endArrow=block;entryX=0;entryY=0.5;exitX=1;exitY=0.25;exitDx=0;exitDy=0;" parent="2" source="4" target="8" edge="1">
          <mxGeometry relative="1" as="geometry">
            <Array as="points">
              <mxPoint x="1174.2264150943395" y="278" />
            </Array>
          </mxGeometry>
        </mxCell>
        <mxCell id="36" value="" style="curved=1;startArrow=none;endArrow=block;exitX=0.96;exitY=1;entryX=0;entryY=0.5;" parent="2" source="7" target="9" edge="1">
          <mxGeometry relative="1" as="geometry">
            <Array as="points">
              <mxPoint x="1174.2264150943395" y="382" />
            </Array>
          </mxGeometry>
        </mxCell>
        <mxCell id="37" value="" style="curved=1;startArrow=none;endArrow=block;exitX=0.55;exitY=0;entryX=0;entryY=0.5;" parent="2" source="3" target="10" edge="1">
          <mxGeometry relative="1" as="geometry">
            <Array as="points">
              <mxPoint x="618.8490566037736" y="538" />
            </Array>
          </mxGeometry>
        </mxCell>
        <mxCell id="38" value="" style="curved=1;startArrow=none;endArrow=block;entryX=0;entryY=0.5;" parent="2" target="11" edge="1">
          <mxGeometry relative="1" as="geometry">
            <Array as="points">
              <mxPoint x="1174.2264150943395" y="486" />
            </Array>
            <mxPoint x="1050" y="360" as="sourcePoint" />
          </mxGeometry>
        </mxCell>
        <mxCell id="39" value="" style="curved=1;startArrow=none;endArrow=block;exitX=0.96;exitY=1;entryX=0;entryY=0.5;" parent="2" source="10" target="12" edge="1">
          <mxGeometry relative="1" as="geometry">
            <Array as="points">
              <mxPoint x="1174.2264150943395" y="590" />
            </Array>
          </mxGeometry>
        </mxCell>
        <mxCell id="40" value="" style="curved=1;startArrow=none;endArrow=block;exitX=0.61;exitY=0;entryX=0;entryY=0.5;" parent="2" source="3" target="13" edge="1">
          <mxGeometry relative="1" as="geometry">
            <Array as="points">
              <mxPoint x="618.8490566037736" y="746" />
            </Array>
          </mxGeometry>
        </mxCell>
        <mxCell id="41" value="" style="curved=1;startArrow=none;endArrow=block;entryX=0;entryY=0.5;exitX=1;exitY=0.25;exitDx=0;exitDy=0;" parent="2" source="13" edge="1">
          <mxGeometry relative="1" as="geometry">
            <Array as="points">
              <mxPoint x="1170.8764150943396" y="700" />
            </Array>
            <mxPoint x="1037.7127924528295" y="725" as="sourcePoint" />
            <mxPoint x="1291.6490566037733" y="763" as="targetPoint" />
          </mxGeometry>
        </mxCell>
        <mxCell id="43" value="" style="curved=1;startArrow=none;endArrow=block;exitX=1;exitY=0.5;entryX=0;entryY=0.5;" parent="2" source="3" target="16" edge="1">
          <mxGeometry relative="1" as="geometry">
            <Array as="points" />
          </mxGeometry>
        </mxCell>
        <mxCell id="45" value="" style="curved=1;startArrow=none;endArrow=block;exitX=0.96;exitY=1;entryX=0;entryY=0.5;" parent="2" source="16" target="18" edge="1">
          <mxGeometry relative="1" as="geometry">
            <Array as="points">
              <mxPoint x="1174.2264150943395" y="1006" />
            </Array>
          </mxGeometry>
        </mxCell>
        <mxCell id="46" value="" style="curved=1;startArrow=none;endArrow=block;exitX=0.61;exitY=1;entryX=0;entryY=0.5;" parent="2" source="3" target="19" edge="1">
          <mxGeometry relative="1" as="geometry">
            <Array as="points">
              <mxPoint x="618.8490566037736" y="1162" />
            </Array>
          </mxGeometry>
        </mxCell>
        <mxCell id="47" value="" style="curved=1;startArrow=none;endArrow=block;exitX=0.96;exitY=0;entryX=0;entryY=0.5;" parent="2" source="19" target="20" edge="1">
          <mxGeometry relative="1" as="geometry">
            <Array as="points">
              <mxPoint x="1174.2264150943395" y="1110" />
            </Array>
          </mxGeometry>
        </mxCell>
        <mxCell id="48" value="" style="curved=1;startArrow=none;endArrow=block;exitX=0.96;exitY=1;entryX=0;entryY=0.5;" parent="2" source="19" target="21" edge="1">
          <mxGeometry relative="1" as="geometry">
            <Array as="points">
              <mxPoint x="1174.2264150943395" y="1214" />
            </Array>
          </mxGeometry>
        </mxCell>
        <mxCell id="49" value="" style="curved=1;startArrow=none;endArrow=block;exitX=0.55;exitY=1;entryX=0;entryY=0.5;" parent="2" source="3" target="22" edge="1">
          <mxGeometry relative="1" as="geometry">
            <Array as="points">
              <mxPoint x="618.8490566037736" y="1370" />
            </Array>
          </mxGeometry>
        </mxCell>
        <mxCell id="50" value="" style="curved=1;startArrow=none;endArrow=block;exitX=0.96;exitY=0;entryX=0;entryY=0.5;" parent="2" source="22" target="23" edge="1">
          <mxGeometry relative="1" as="geometry">
            <Array as="points">
              <mxPoint x="1174.2264150943395" y="1318" />
            </Array>
          </mxGeometry>
        </mxCell>
        <mxCell id="52" value="" style="curved=1;startArrow=none;endArrow=block;exitX=0.53;exitY=1;entryX=0;entryY=0.5;" parent="2" source="3" target="25" edge="1">
          <mxGeometry relative="1" as="geometry">
            <Array as="points">
              <mxPoint x="618.8490566037736" y="1578" />
            </Array>
          </mxGeometry>
        </mxCell>
        <mxCell id="53" value="" style="curved=1;startArrow=none;endArrow=block;exitX=0.96;exitY=0;entryX=0;entryY=0.5;" parent="2" source="25" target="26" edge="1">
          <mxGeometry relative="1" as="geometry">
            <Array as="points">
              <mxPoint x="1174.2264150943395" y="1526" />
            </Array>
          </mxGeometry>
        </mxCell>
        <mxCell id="54" value="" style="curved=1;startArrow=none;endArrow=block;exitX=0.96;exitY=1;entryX=0;entryY=0.5;" parent="2" source="25" target="27" edge="1">
          <mxGeometry relative="1" as="geometry">
            <Array as="points">
              <mxPoint x="1174.2264150943395" y="1630" />
            </Array>
          </mxGeometry>
        </mxCell>
        <mxCell id="55" value="" style="curved=1;startArrow=none;endArrow=block;exitX=0.52;exitY=1;entryX=0;entryY=0.5;" parent="2" source="3" target="28" edge="1">
          <mxGeometry relative="1" as="geometry">
            <Array as="points">
              <mxPoint x="618.8490566037736" y="1786" />
            </Array>
          </mxGeometry>
        </mxCell>
        <mxCell id="56" value="" style="curved=1;startArrow=none;endArrow=block;exitX=0.96;exitY=0;entryX=0;entryY=0.5;" parent="2" source="28" target="29" edge="1">
          <mxGeometry relative="1" as="geometry">
            <Array as="points">
              <mxPoint x="1174.2264150943395" y="1734" />
            </Array>
          </mxGeometry>
        </mxCell>
      </root>
    </mxGraphModel>
  </diagram>
</mxfile>
